<svg xmlns="http://www.w3.org/2000/svg" viewBox="0 0 32 32" width="32" height="32">
  <defs>
    <linearGradient id="flowerGradient" x1="0%" y1="0%" x2="100%" y2="100%">
      <stop offset="0%" style="stop-color:#fce4ec;stop-opacity:1" />
      <stop offset="50%" style="stop-color:#f48fb1;stop-opacity:1" />
      <stop offset="100%" style="stop-color:#ec407a;stop-opacity:1" />
    </linearGradient>
    <linearGradient id="stemGradient" x1="0%" y1="0%" x2="100%" y2="100%">
      <stop offset="0%" style="stop-color:#4caf50;stop-opacity:1" />
      <stop offset="100%" style="stop-color:#388e3c;stop-opacity:1" />
    </linearGradient>
  </defs>
  
  <!-- Background circle -->
  <circle cx="16" cy="16" r="15" fill="url(#flowerGradient)" stroke="#e91e63" stroke-width="1"/>
  
  <!-- Lily/Tulip petals -->
  <!-- Center petal -->
  <ellipse cx="16" cy="12" rx="4" ry="6" fill="#f8bbd9" stroke="#e91e63" stroke-width="0.5"/>
  
  <!-- Left petal -->
  <ellipse cx="12" cy="14" rx="3" ry="5" fill="#f48fb1" stroke="#e91e63" stroke-width="0.5" transform="rotate(-15 12 14)"/>
  
  <!-- Right petal -->
  <ellipse cx="20" cy="14" rx="3" ry="5" fill="#f48fb1" stroke="#e91e63" stroke-width="0.5" transform="rotate(15 20 14)"/>
  
  <!-- Back left petal -->
  <ellipse cx="13" cy="16" rx="2.5" ry="4" fill="#f06292" stroke="#e91e63" stroke-width="0.5" transform="rotate(-25 13 16)"/>
  
  <!-- Back right petal -->
  <ellipse cx="19" cy="16" rx="2.5" ry="4" fill="#f06292" stroke="#e91e63" stroke-width="0.5" transform="rotate(25 19 16)"/>
  
  <!-- Stem -->
  <path d="M 16 18 L 16 28" stroke="url(#stemGradient)" stroke-width="2" stroke-linecap="round"/>
  
  <!-- Leaves -->
  <ellipse cx="14" cy="22" rx="2" ry="1" fill="#4caf50" transform="rotate(-30 14 22)"/>
  <ellipse cx="18" cy="24" rx="2" ry="1" fill="#4caf50" transform="rotate(30 18 24)"/>
  
  <!-- Center detail -->
  <circle cx="16" cy="14" r="1.5" fill="#e91e63"/>
  <circle cx="16" cy="14" r="0.8" fill="#fce4ec"/>
</svg> 