<svg xmlns="http://www.w3.org/2000/svg" viewBox="0 0 512 512" width="512" height="512">
  <defs>
    <linearGradient id="flowerGradient" x1="0%" y1="0%" x2="100%" y2="100%">
      <stop offset="0%" style="stop-color:#fce4ec;stop-opacity:1" />
      <stop offset="50%" style="stop-color:#f48fb1;stop-opacity:1" />
      <stop offset="100%" style="stop-color:#ec407a;stop-opacity:1" />
    </linearGradient>
    <linearGradient id="stemGradient" x1="0%" y1="0%" x2="100%" y2="100%">
      <stop offset="0%" style="stop-color:#4caf50;stop-opacity:1" />
      <stop offset="100%" style="stop-color:#388e3c;stop-opacity:1" />
    </linearGradient>
    <radialGradient id="centerGradient" cx="50%" cy="50%" r="50%">
      <stop offset="0%" style="stop-color:#fce4ec;stop-opacity:1" />
      <stop offset="100%" style="stop-color:#e91e63;stop-opacity:1" />
    </radialGradient>
  </defs>
  
  <!-- Background circle -->
  <circle cx="256" cy="256" r="240" fill="url(#flowerGradient)" stroke="#e91e63" stroke-width="8"/>
  
  <!-- Lily/Tulip petals -->
  <!-- Center petal -->
  <ellipse cx="256" cy="200" rx="60" ry="90" fill="#f8bbd9" stroke="#e91e63" stroke-width="4"/>
  
  <!-- Left petal -->
  <ellipse cx="200" cy="220" rx="45" ry="75" fill="#f48fb1" stroke="#e91e63" stroke-width="4" transform="rotate(-15 200 220)"/>
  
  <!-- Right petal -->
  <ellipse cx="312" cy="220" rx="45" ry="75" fill="#f48fb1" stroke="#e91e63" stroke-width="4" transform="rotate(15 312 220)"/>
  
  <!-- Back left petal -->
  <ellipse cx="220" cy="250" rx="40" ry="60" fill="#f06292" stroke="#e91e63" stroke-width="4" transform="rotate(-25 220 250)"/>
  
  <!-- Back right petal -->
  <ellipse cx="292" cy="250" rx="40" ry="60" fill="#f06292" stroke="#e91e63" stroke-width="4" transform="rotate(25 292 250)"/>
  
  <!-- Additional petals for more fullness -->
  <ellipse cx="180" cy="280" rx="35" ry="50" fill="#e91e63" stroke="#c2185b" stroke-width="3" transform="rotate(-35 180 280)"/>
  <ellipse cx="332" cy="280" rx="35" ry="50" fill="#e91e63" stroke="#c2185b" stroke-width="3" transform="rotate(35 332 280)"/>
  
  <!-- Stem -->
  <path d="M 256 300 L 256 450" stroke="url(#stemGradient)" stroke-width="20" stroke-linecap="round"/>
  
  <!-- Leaves -->
  <ellipse cx="220" cy="350" rx="30" ry="15" fill="#4caf50" transform="rotate(-30 220 350)"/>
  <ellipse cx="292" cy="380" rx="30" ry="15" fill="#4caf50" transform="rotate(30 292 380)"/>
  <ellipse cx="200" cy="400" rx="25" ry="12" fill="#66bb6a" transform="rotate(-45 200 400)"/>
  
  <!-- Center detail -->
  <circle cx="256" cy="220" r="25" fill="url(#centerGradient)"/>
  <circle cx="256" cy="220" r="15" fill="#fce4ec"/>
  <circle cx="256" cy="220" r="8" fill="#e91e63"/>
  
  <!-- Decorative elements -->
  <circle cx="256" cy="220" r="35" fill="none" stroke="#fce4ec" stroke-width="3" opacity="0.6"/>
  <circle cx="256" cy="220" r="50" fill="none" stroke="#fce4ec" stroke-width="2" opacity="0.4"/>
</svg> 